# xmcd
#
# Track frame offsets: 
#        150
#        31727
#        50555
#        87732
#        108697
#        138110
#        159412
#        172340
#        192417
#        224202
#
# Disc length: 3487 seconds
#
# Revision: 0
# Processed by: cddbd v1.4PL0 Copyright (c) Steve Scherf et al.
# Submitted via: ExactAudioCopy v0.90b4
#
DISCID=990d9d0a
DTITLE=Weedfreak - Methadone
DYEAR=1997
DGENRE=Acoustic
TTITLE0=S.D.T.R.
TTITLE1=Magnificent Seven
TTITLE2=Chocolate
TTITLE3=Methadone
TTITLE4=Honey's Got Soul
TTITLE5=Vandalhag
TTITLE6=Rapscallion
TTITLE7=Apeman
TTITLE8=Sliding Down The Road
TTITLE9=Chocolate (Alternate)
EXTD=
EXTT0=
EXTT1=
EXTT2=
EXTT3=
EXTT4=
EXTT5=
EXTT6=
EXTT7=
EXTT8=
EXTT9=
PLAYORDER=
